<?xml version="1.0" encoding="UTF-8"?> <svg xmlns="http://www.w3.org/2000/svg" xmlns:xlink="http://www.w3.org/1999/xlink" class="animated-rocket" x="0px" y="0px" viewBox="-82 14 108 108" xml:space="preserve"> <g class="rocketship" style="transform: rotate(45deg);"> <g class="rocket-body"> <path d="M25.9,1.6c-4.6,4.3-8.6,10-11.6,16.5h27.2c-3-6.6-7-12.2-11.6-16.5C28.8,0.5,27.1,0.5,25.9,1.6z"></path> <path d="M45.3,74.8c1.8-9.1,2.8-17.9,2.8-25.3c0-10.5-2-20.4-5.5-28.8H13.2c-3.5,8.5-5.5,18.3-5.5,28.8c0,7.4,1,16.2,2.8,25.3 l-8.5,7.6c-0.5,0.4-0.7,1.1-0.7,1.7L3.8,105c0.1,1,1,1.8,2,1.8h4.3c1,0,1.9-0.8,2-1.8l1.3-12l1.2-1.8c0.3,1,0.6,2,0.9,2.9 c0.3,0.8,1,1.4,1.9,1.4h21c0.9,0,1.6-0.6,1.9-1.4c0.3-1,0.6-1.9,0.9-2.9l1.2,1.8l1.3,12c0.1,1,1,1.8,2,1.8h4.3c1,0,1.9-0.8,2-1.8 l2.4-20.9c0.1-0.6-0.2-1.3-0.7-1.7L45.3,74.8z M28,51c-5.5,0-9.9-4.4-9.9-9.9c0-5.5,4.4-9.9,9.9-9.9c5.5,0,9.9,4.4,9.9,9.9 C37.9,46.6,33.4,51,28,51z"></path> </g> <ellipse class="center-flame" cx="28" cy="118.8" rx="4.9" ry="20.6"></ellipse> <ellipse class="side-flame" cx="19.1" cy="115.2" rx="2" ry="14"></ellipse> <ellipse class="side-flame" cx="36.7" cy="115.2" rx="2" ry="14"></ellipse> </g> </svg> 